<?xml version="1.0" standalone="no"?>
<!DOCTYPE svg PUBLIC "-//W3C//DTD SVG 20010904//EN"
 "http://www.w3.org/TR/2001/REC-SVG-20010904/DTD/svg10.dtd">
<svg version="1.0" xmlns="http://www.w3.org/2000/svg"
 width="256.000000pt" height="256.000000pt" viewBox="0 0 256.000000 256.000000"
 preserveAspectRatio="xMidYMid meet">
<metadata>
Created by potrace 1.11, written by Peter Selinger 2001-2013
</metadata>
<g transform="translate(0.000000,256.000000) scale(0.100000,-0.100000)"
fill="#000000" stroke="none">
<path d="M935 2220 c-8 -9 -15 -21 -15 -25 0 -5 -21 -52 -47 -105 -25 -52 -69
-144 -98 -205 -29 -60 -89 -186 -135 -280 -45 -93 -102 -212 -126 -263 -25
-51 -76 -159 -115 -240 -39 -81 -90 -187 -114 -237 -23 -49 -80 -166 -125
-260 -45 -93 -95 -198 -111 -232 l-28 -63 357 0 358 0 14 37 c7 21 20 54 28
73 9 19 17 40 18 45 2 6 15 39 30 75 34 82 315 775 397 979 l62 154 20 -45
c11 -25 26 -61 34 -79 7 -19 19 -47 26 -64 8 -16 23 -57 36 -90 12 -33 29 -78
39 -100 10 -22 79 -193 155 -380 76 -187 162 -398 191 -470 l52 -130 356 -3
c196 -1 356 0 356 3 0 3 -45 98 -100 211 -55 114 -100 208 -100 209 0 2 -43
92 -96 202 -53 109 -115 239 -139 288 -24 50 -78 162 -120 250 -42 88 -94 196
-115 240 -37 78 -150 315 -213 445 -17 36 -35 68 -40 71 -5 3 -159 6 -343 6
-298 0 -336 -2 -349 -17z"/>
<path d="M1244 927 c-22 -24 -57 -63 -79 -88 -22 -25 -71 -80 -110 -123 -38
-43 -74 -84 -78 -92 -7 -12 42 -14 314 -14 l322 0 -24 27 c-13 15 -33 37 -44
49 -11 13 -34 38 -50 56 -17 18 -68 77 -114 131 -46 53 -87 97 -91 97 -4 0
-25 -19 -46 -43z"/>
</g>
</svg>
